<svg width="256px" height="256px" viewBox="-6.2 -6.2 32.40 32.40" xmlns="http://www.w3.org/2000/svg" fill="none" transform="rotate(180)"><g id="SVGRepo_bgCarrier" stroke-width="0" transform="translate(0,0), scale(1)"><rect x="-6.2" y="-6.2" width="32.40" height="32.40" rx="16.2" fill="#ffffff" strokewidth="0"></rect></g><g id="SVGRepo_tracerCarrier" stroke-linecap="round" stroke-linejoin="round" stroke="#CCCCCC" stroke-width="1"></g><g id="SVGRepo_iconCarrier"> <path fill="#000000" fill-rule="evenodd" d="M19 4a1 1 0 01-1 1H2a1 1 0 010-2h16a1 1 0 011 1zm0 6a1 1 0 01-1 1H2a1 1 0 110-2h16a1 1 0 011 1zm-1 7a1 1 0 100-2H2a1 1 0 100 2h16z"></path> </g></svg>